<?xml version="1.0" encoding="utf-8"?>
<!-- Generator: Adobe Illustrator 26.5.0, SVG Export Plug-In . SVG Version: 6.00 Build 0)  -->
<svg version="1.0" id="katman_1" xmlns="http://www.w3.org/2000/svg" xmlns:xlink="http://www.w3.org/1999/xlink" x="0px" y="0px"
	 viewBox="0 0 1190.55 841.89" style="enable-background:new 0 0 1190.55 841.89;" xml:space="preserve">
<style type="text/css">
	.st0{clip-path:url(#SVGID_00000181795543950291419790000000656675712567216575_);}
	.st1{fill:url(#SVGID_00000108268767976765514390000001644895656921990335_);}
	.st2{fill:url(#SVGID_00000152960652167691987190000013635289422873511075_);}
	.st3{fill:url(#SVGID_00000052795222667321015980000011567122346183707543_);}
	.st4{fill:url(#SVGID_00000137811343963421936080000001377338540440251578_);}
	.st5{fill:url(#SVGID_00000020365348299667940530000008070464743351554712_);}
	.st6{fill:url(#SVGID_00000062903333732042955940000011469729842790016385_);}
	.st7{fill:#37A4DD;}
	.st8{fill:#0B60AB;}
</style>
<g>
	<defs>
		<rect id="SVGID_1_" x="109" y="277.54" width="972" height="285.88"/>
	</defs>
	<clipPath id="SVGID_00000085928876335751167050000001790670345715658408_">
		<use xlink:href="#SVGID_1_"  style="overflow:visible;"/>
	</clipPath>
	<g style="clip-path:url(#SVGID_00000085928876335751167050000001790670345715658408_);">
		
			<linearGradient id="SVGID_00000041259161775560148030000013017844172608938915_" gradientUnits="userSpaceOnUse" x1="424.8212" y1="564.5656" x2="424.8212" y2="278.5673" gradientTransform="matrix(1 0 0 -1 0 842.1102)">
			<stop  offset="0" style="stop-color:#0B60AB"/>
			<stop  offset="1" style="stop-color:#37A4DD"/>
		</linearGradient>
		<path style="fill:url(#SVGID_00000041259161775560148030000013017844172608938915_);" d="M401.1,380.66v157.57
			c0,16.26,9.1,25.31,25.71,25.31h21.73v-208.2h-21.73C410.2,355.34,401.1,364.28,401.1,380.66z"/>
		
			<linearGradient id="SVGID_00000050637136551258172950000014949239120083766658_" gradientUnits="userSpaceOnUse" x1="533.6204" y1="486.7666" x2="533.6204" y2="278.6833" gradientTransform="matrix(1 0 0 -1 0 842.1102)">
			<stop  offset="0" style="stop-color:#0B60AB"/>
			<stop  offset="1" style="stop-color:#37A4DD"/>
		</linearGradient>
		<path style="fill:url(#SVGID_00000050637136551258172950000014949239120083766658_);" d="M500.29,371.83
			c-16.04,13.47-24,32.98-23.89,57.83v108.45c0,16.26,9.1,25.31,25.71,25.31h21.73V429.66c0-9.06,2.5-15.79,7.62-20.44
			c3.53-3.02,20.93-5.69,29.58-5.69h5.23c15.81,0,24.57-9.29,24.57-26.24v-21.95h-29.8C543.97,355.34,513.71,360.45,500.29,371.83z"
			/>
		
			<linearGradient id="SVGID_00000024720093273445072710000016138087752524329606_" gradientUnits="userSpaceOnUse" x1="692.1992" y1="564.5656" x2="692.1992" y2="278.5673" gradientTransform="matrix(1 0 0 -1 0 842.1102)">
			<stop  offset="0" style="stop-color:#0B60AB"/>
			<stop  offset="1" style="stop-color:#37A4DD"/>
		</linearGradient>
		<path style="fill:url(#SVGID_00000024720093273445072710000016138087752524329606_);" d="M713.24,447.08
			c1.59-2.09,3.19-4.53,4.66-7.2l50.51-84.53h-38.22c-11.26,0-20.36,5.46-26.96,16.26l-36.63,61.31c-2.05,3.6-4.21,4.18-5.57,4.41
			c-3.3,0.46-5.01,0.7-5.01,0.7V277.54H634.3c-16.61,0-25.71,8.94-25.71,25.31v235.37c0,16.26,9.1,25.31,25.71,25.31h21.73v-77.1
			h22.52c8.53,0,14.22,3.95,18.09,12.54l21.04,49.23c2.96,6.97,9.9,15.33,26.73,15.33h31.4l-35.83-83.72
			C733.49,464.84,724.62,453.93,713.24,447.08z"/>
		
			<linearGradient id="SVGID_00000150091235085773933050000009458240276824348301_" gradientUnits="userSpaceOnUse" x1="873.866" y1="486.7666" x2="873.866" y2="278.4513" gradientTransform="matrix(1 0 0 -1 0 842.1102)">
			<stop  offset="0" style="stop-color:#0B60AB"/>
			<stop  offset="1" style="stop-color:#37A4DD"/>
		</linearGradient>
		<path style="fill:url(#SVGID_00000150091235085773933050000009458240276824348301_);" d="M918.8,379.96v102.53
			c0,8.94-3.75,16.26-11.6,22.64c-9.1,7.66-20.25,11.5-33.33,11.5c-13.19,0-24.12-3.72-33.33-11.5
			c-7.74-6.39-11.49-13.82-11.49-22.64V355.34h-21.16c-16.15,0-25.03,8.71-25.03,24.62v102.53c0,23.11,9.55,42.96,28.32,58.87
			c17.29,14.75,38.33,22.29,62.56,22.29s45.39-7.43,62.79-22.29c18.77-16.14,28.33-36,28.33-58.87V355.34h-21.16
			C927.67,355.34,918.8,364.05,918.8,379.96z"/>
		
			<linearGradient id="SVGID_00000015315447548068895990000007990550421619869597_" gradientUnits="userSpaceOnUse" x1="1012.1228" y1="564.5656" x2="1012.1228" y2="278.4513" gradientTransform="matrix(1 0 0 -1 0 842.1102)">
			<stop  offset="0" style="stop-color:#0B60AB"/>
			<stop  offset="1" style="stop-color:#37A4DD"/>
		</linearGradient>
		<path style="fill:url(#SVGID_00000015315447548068895990000007990550421619869597_);" d="M1035.84,563.54v-286h-21.73
			c-16.61,0-25.7,8.94-25.7,25.31v260.8h47.43V563.54z"/>
		
			<linearGradient id="SVGID_00000005970337885393852350000018119796776975089332_" gradientUnits="userSpaceOnUse" x1="242.0317" y1="564.5656" x2="242.0317" y2="280.3087" gradientTransform="matrix(1 0 0 -1 0 842.1102)">
			<stop  offset="0" style="stop-color:#0B60AB"/>
			<stop  offset="1" style="stop-color:#37A4DD"/>
		</linearGradient>
		<path style="fill:url(#SVGID_00000005970337885393852350000018119796776975089332_);" d="M327.29,478.54
			c-0.91,1.28-2.16,2.55-3.41,3.95c-22.75,21.48-43.79,34.49-76.44,34.49c-51.53,0-88.84-43.54-88.84-97.31v-0.81
			c0-53.76,37.65-96.96,88.84-96.96c30.71,0,53.8,13.7,75.3,34.14c0.45,0.46,0.91,0.93,1.36,1.39c8.53,10.57,19.56,12.66,31.62,6.27
			l19.34-10.33l-1.59-3.72c-4.89-10.92-11.72-20.67-20.36-29.26c-0.11-0.12-0.23-0.23-0.45-0.46c-0.57-0.46-1.14-1.05-1.59-1.51
			c-25.25-24.15-54.94-40.87-103.29-40.87c-81.45,0-138.78,63.98-138.78,142.13v0.81c0,78.84,58.47,141.32,136.84,141.32
			c50.39,0,81.1-18.81,109.2-48.65l-0.23-0.23c8.08-8.48,14.45-18,18.77-28.68l1.48-3.48l-18.43-9.06
			C344.92,466.12,334.68,468.67,327.29,478.54z"/>
		<path class="st7" d="M401.33,304.25v23.22h21.84c16.61,0,25.71-8.94,25.71-25.31v-23.22h-21.84
			C410.43,278.94,401.33,287.88,401.33,304.25z"/>
		<path class="st8" d="M1062.57,316.1c-10.92,0-18.43-7.66-18.43-19.28c0-11.5,7.74-19.28,18.43-19.28
			c10.92,0,18.43,7.78,18.43,19.28S1073.38,316.1,1062.57,316.1z M1062.57,279.75c-8.76,0-15.69,6.15-15.69,17.07
			c0,10.8,6.93,16.95,15.69,16.95c8.88,0,15.81-6.15,15.81-16.95C1078.39,285.91,1071.34,279.75,1062.57,279.75z M1067.35,307.04
			l-5.57-8.36h-1.59v8.13h-4.66v-21.25h7.16c4.78,0,7.74,2.32,7.74,6.5c0,3.02-1.48,4.88-3.98,5.92l5.57,8.36L1067.35,307.04z
			 M1062.46,289.27h-2.16v6.04h2.16c2.16,0,3.53-1.05,3.53-3.02C1065.87,290.43,1064.62,289.27,1062.46,289.27z"/>
	</g>
</g>
</svg>
